<?xml version="1.0" standalone="no"?>
<!DOCTYPE svg PUBLIC "-//W3C//DTD SVG 20010904//EN"
 "http://www.w3.org/TR/2001/REC-SVG-20010904/DTD/svg10.dtd">
<svg version="1.0" xmlns="http://www.w3.org/2000/svg"
 width="652.000000pt" height="369.000000pt" viewBox="0 0 652.000000 369.000000"
 preserveAspectRatio="xMidYMid meet">

<g transform="translate(0.000000,369.000000) scale(0.100000,-0.100000)"
fill="#000000" stroke="none">
<path d="M3321 3295 c-258 -58 -465 -186 -620 -383 l-64 -81 -66 33 c-201 102
-440 114 -633 33 -166 -70 -292 -177 -381 -324 -63 -104 -106 -266 -107 -400
l0 -53 -37 0 c-63 0 -263 -45 -348 -79 -159 -61 -338 -189 -424 -304 -54 -71
-115 -196 -143 -292 -20 -70 -23 -102 -23 -250 0 -166 1 -172 33 -265 46 -132
101 -221 196 -315 94 -92 161 -135 283 -179 l88 -31 2205 0 c2071 0 2209 1
2270 18 224 60 402 221 479 433 76 209 64 424 -36 633 -38 79 -59 108 -131
181 -113 114 -217 168 -350 182 -48 5 -91 10 -95 11 -4 1 -10 40 -12 86 -18
329 -219 592 -535 702 -55 19 -89 23 -222 25 l-158 2 -35 67 c-135 260 -360
444 -651 531 -78 23 -110 27 -254 30 -118 3 -183 -1 -229 -11z m442 -189 c281
-83 490 -280 583 -551 15 -44 30 -84 34 -88 4 -5 38 1 76 13 333 103 673 -87
759 -425 20 -79 19 -182 -4 -283 l-19 -84 111 7 c194 12 325 -33 439 -148 103
-104 159 -252 159 -417 0 -169 -46 -286 -155 -396 -83 -83 -162 -125 -281
-149 -72 -14 -290 -15 -2215 -13 l-2135 3 -75 27 c-235 86 -383 294 -397 558
-15 258 106 502 318 642 129 86 380 148 597 148 116 0 111 -6 87 95 -58 241
40 494 246 631 107 71 191 97 319 98 166 1 281 -44 420 -165 33 -29 62 -50 64
-48 2 2 18 33 36 69 135 269 369 449 652 499 95 18 282 6 381 -23z"/>
</g>
</svg>
